# xmcd
#
# Track frame offsets:
#	150
#	18840
#	35788
#	55573
#	75789
#	87107
#	107008
#	127175
#	138534
#	156638
#
# Disc length: 2359 seconds
#
# Revision: 6
# Processed by: cddbd v1.5.2PL0 Copyright (c) Steve Scherf et al.
# Submitted via: EasyCDDAExtractor 12.0.7.1
#
DISCID=7a09350a
DTITLE=Lee Ann Womack - The Season For Romance
DYEAR=2002
DGENRE=Country
TTITLE0=The Season For Romance
TTITLE1=Baby It's Cold Outside (with Harry Connick Jr.)
TTITLE2=Let It Snow and Winter Wonderland
TTITLE3=Have Yourself A Merry Little Christmas
TTITLE4=Silent Night
TTITLE5=White Christmas
TTITLE6=Forever Christmas Eve
TTITLE7=The Man With The Bag
TTITLE8=The Christmas Song
TTITLE9=What Are You Doing New Year's Eve
EXTD=
EXTT0=
EXTT1=
EXTT2=
EXTT3=
EXTT4=
EXTT5=
EXTT6=
EXTT7=
EXTT8=
EXTT9=
PLAYORDER=
